# Created by FreeCAD <http://www.freecadweb.org>
v 18.100000 24.100000 0.000000
v -18.100000 24.100000 0.000000
v -18.100000 24.100000 2.600000
v 18.100000 24.100000 2.600000
v -18.100000 -24.100000 0.000000
v -18.100000 -24.100000 2.600000
v 18.100000 -24.100000 0.000000
v 18.100000 -24.100000 2.600000
v 17.500000 -23.500000 2.600000
v -17.500000 -23.500000 2.600000
v 17.500000 23.500000 2.600000
v -17.500000 23.500000 2.600000
v -17.500000 23.500000 0.600000
v 17.500000 23.500000 0.600000
v 17.500000 -23.500000 0.600000
v -17.500000 -23.500000 0.600000
vn 0.000000 1.000000 0.000000
vn 0.000000 1.000000 -0.000000
vn -1.000000 0.000000 0.000000
vn -1.000000 0.000000 0.000000
vn 1.000000 0.000000 0.000000
vn 1.000000 0.000000 0.000000
vn 0.000000 -0.000000 -1.000000
vn 0.000000 0.000000 -1.000000
vn 0.000000 0.000000 1.000000
vn 0.000000 0.000000 1.000000
vn 0.000000 0.000000 1.000000
vn 0.000000 -0.000000 1.000000
vn 0.000000 -0.000000 1.000000
vn 0.000000 0.000000 1.000000
vn 0.000000 0.000000 1.000000
vn 0.000000 0.000000 1.000000
vn 0.000000 -1.000000 0.000000
vn 0.000000 -1.000000 0.000000
vn 0.000000 -1.000000 0.000000
vn 0.000000 -1.000000 0.000000
vn -1.000000 0.000000 0.000000
vn -1.000000 -0.000000 0.000000
vn 0.000000 1.000000 -0.000000
vn 0.000000 1.000000 0.000000
vn 1.000000 0.000000 0.000000
vn 1.000000 -0.000000 0.000000
vn 0.000000 -0.000000 1.000000
vn 0.000000 0.000000 1.000000
f 1//1 2//1 3//1
f 1//2 3//2 4//2
f 2//3 5//3 6//3
f 2//4 6//4 3//4
f 7//5 1//5 4//5
f 7//6 4//6 8//6
f 1//7 7//7 5//7
f 2//8 1//8 5//8
f 9//9 10//9 8//9
f 10//10 6//10 8//10
f 9//11 4//11 11//11
f 8//12 4//12 9//12
f 10//13 12//13 6//13
f 4//14 12//14 11//14
f 12//15 3//15 6//15
f 4//16 3//16 12//16
f 5//17 7//17 8//17
f 5//18 8//18 6//18
f 13//19 14//19 12//19
f 12//20 14//20 11//20
f 14//21 15//21 11//21
f 11//22 15//22 9//22
f 15//23 16//23 9//23
f 9//24 16//24 10//24
f 16//25 13//25 10//25
f 10//26 13//26 12//26
f 15//27 14//27 16//27
f 14//28 13//28 16//28
